<svg version="1.1" viewBox="0 0 286.054 286.054" xmlns="http://www.w3.org/2000/svg" xmlns:xlink="http://www.w3.org/1999/xlink" id="Layer_1" overflow="hidden"><g><path d=" M 168.352 142.924 L 193.632 117.644 C 197.127 114.14 197.127 108.49 193.632 105.004 L 180.992 92.355 C 177.497 88.869 171.847 88.86 168.352 92.355 L 143.063 117.644 L 117.792 92.373 C 114.288 88.869 108.629 88.869 105.134 92.355 L 92.494 105.004 C 88.999 108.49 89.008 114.158 92.512 117.653 L 117.783 142.924 L 92.556 168.15 C 89.061 171.645 89.061 177.295 92.556 180.79 L 105.196 193.439 C 108.691 196.925 114.341 196.934 117.836 193.439 L 143.062 168.213 L 168.467 193.627 C 171.971 197.131 177.63 197.131 181.125 193.636 L 193.765 180.996 C 197.26 177.501 197.251 171.842 193.756 168.338 L 168.352 142.924 Z M 143.027 0.004 C 64.031 0.004 0 64.036 0 143.022 C 0 222.018 64.031 286.049 143.027 286.049 C 222.023 286.049 286.054 222.018 286.054 143.022 C 286.054 64.045 222.022 0.004 143.027 0.004 Z M 143.027 259.232 C 78.844 259.232 26.818 207.206 26.818 143.023 C 26.818 78.84 78.844 26.813 143.027 26.813 C 207.21 26.813 259.236 78.839 259.236 143.022 C 259.236 207.205 207.21 259.232 143.027 259.232 Z" stroke="none" stroke-width="1" stroke-linecap="butt" fill="#FFFFFF" fill-opacity="1"/></g><g></g><g></g><g></g><g></g><g></g><g></g><g></g><g></g><g></g><g></g><g></g><g></g><g></g><g></g><g></g></svg>