<svg version="1.1" width="762.667" height="762.667" viewBox="-18 -18 572.009 572" xmlns="http://www.w3.org/2000/svg" xmlns:xlink="http://www.w3.org/1999/xlink" overflow="hidden"><path d=" M 399.488 255.602 L 129.594 255.602 C 122.707 255.602 117.125 261.188 117.125 268.074 C 117.125 274.965 122.707 280.547 129.594 280.547 L 399.488 280.547 C 406.379 280.547 411.961 274.965 411.961 268.074 C 411.961 261.188 406.379 255.602 399.488 255.602 Z" stroke="none" stroke-width="1" stroke-linecap="butt" fill="#FFFFFF" fill-opacity="1"/><path d=" M 268.156 -0.0742188 C 159.699 -0.09375 61.9141 65.2344 20.4102 165.438 C -21.0859 265.645 1.86719 380.98 78.582 457.648 C 183.285 562.352 353.035 562.352 457.734 457.648 C 562.434 352.953 562.434 183.203 457.734 78.5 C 407.566 28.0469 339.305 -0.246094 268.156 -0.0742188 Z M 268.156 511.281 C 134.082 511.281 24.9531 402.148 24.9531 268.074 C 24.9531 134 134.082 24.8711 268.156 24.8711 C 402.23 24.8711 511.363 134 511.363 268.074 C 511.363 402.148 402.23 511.281 268.156 511.281 Z" stroke="none" stroke-width="1" stroke-linecap="butt" fill="#FFFFFF" fill-opacity="1"/></svg>